<svg width="64" height="64" viewBox="0 0 64 64" fill="none" xmlns="http://www.w3.org/2000/svg">
<path d="M60.0853 39.9542V35.9148H41.464C41.464 41.1415 37.2269 45.3788 32 45.3788C26.7732 45.3788 22.536 41.1417 22.536 35.9148H3.91479V39.9542L12.0008 40.8104C12.5052 42.8779 13.3218 44.8232 14.3979 46.5932L9.28442 52.9178L14.997 58.6304L21.3217 53.5169C23.0917 54.593 25.0369 55.4097 27.1044 55.914L27.9607 64H36.0394L36.8957 55.914C38.9632 55.4097 40.9084 54.593 42.6784 53.5169L49.003 58.6304L54.7157 52.9178L49.6022 46.5932C50.6783 44.8232 51.4949 42.8779 51.9993 40.8104L60.0853 39.9542Z" fill="white"/>
<path d="M32 0C28.0001 0 24.7458 3.25425 24.7458 7.25413C24.7458 11.254 28.0001 14.5081 32 14.5081C35.9999 14.5081 39.2541 11.254 39.2541 7.25413C39.2541 3.25425 35.9999 0 32 0Z" fill="white"/>
<path d="M39.7234 16.5137H24.2766C20.7205 16.5138 17.8274 19.4068 17.8274 22.9629V32.1647H46.1726V22.9629C46.1726 19.4068 43.2795 16.5137 39.7234 16.5137Z" fill="white"/>
<path d="M16.6109 3.35095C13.0277 3.35095 10.1125 6.2662 10.1125 9.84933C10.1125 13.4037 12.9814 16.2991 16.525 16.3455C17.9925 14.629 20.0174 13.4038 22.3179 12.9545C22.8222 12.0313 23.1093 10.9733 23.1093 9.84933C23.1093 6.26608 20.1942 3.35095 16.6109 3.35095Z" fill="white"/>
<path d="M9.69217 18.1443C6.50655 18.1443 3.91479 20.7359 3.91479 23.9217V32.1648H14.0774V22.9629C14.0774 21.221 14.5172 19.5802 15.2903 18.1443H9.69217Z" fill="white"/>
<path d="M47.3892 3.35095C43.806 3.35095 40.8909 6.2662 40.8909 9.84933C40.8909 10.9732 41.1779 12.0313 41.6821 12.9545C43.9827 13.4038 46.0076 14.629 47.4751 16.3455C51.0187 16.2992 53.8876 13.4037 53.8876 9.84933C53.8876 6.26608 50.9725 3.35095 47.3892 3.35095Z" fill="white"/>
<path d="M54.3078 18.1443H48.7097C49.4828 19.5802 49.9226 21.221 49.9226 22.9629V32.1647H60.0852V23.9215C60.0852 20.7359 57.4935 18.1443 54.3078 18.1443Z" fill="white"/>
</svg>
