<svg width="64" height="64" viewBox="0 0 64 64" fill="none" xmlns="http://www.w3.org/2000/svg">
<g clip-path="url(#clip0_211_5093)">
<path d="M51.9364 0H6.84103C4.18256 0 2 2.18256 2 4.84103V64H49.7538V4.84103C49.7538 2.93744 50.5908 1.19795 51.9364 0ZM56.2359 0L55.2021 0.114873C53.0195 0.59077 51.3949 2.54359 51.3949 4.84103V17.8872H61.0769V4.84103C61.0769 2.18256 58.8944 0 56.2359 0ZM13.9467 57.2882C12.8636 57.2882 12.8636 55.6472 13.9467 55.6472H37.0523C38.1354 55.6472 38.1354 57.2882 37.0523 57.2882H13.9467ZM8.13744 50.8554C7.05436 50.8554 7.05436 49.2144 8.13744 49.2144H42.8451C43.9282 49.2144 43.9282 50.8554 42.8451 50.8554H8.13744ZM29.8974 9.7641C29.9959 10.3056 29.9795 10.8472 29.881 11.3887H42.599V9.7641H29.8974ZM21.1015 11.3887C20.9867 10.8472 20.9867 10.2892 21.0851 9.7641H8.36718V11.3887H21.1015ZM16.72 23.9426H8.38359V26.962C8.38359 28.6195 9.74564 29.9815 11.4031 29.9815H13.6841C15.3415 29.9815 16.7036 28.6195 16.7036 26.962V23.9426H16.72ZM7.56308 22.2851H17.5241C17.9836 22.2851 18.3446 22.6462 18.3446 23.1056V26.9456C18.3446 29.5056 16.2441 31.6062 13.6841 31.6062H11.4031C8.84308 31.6062 6.74256 29.5056 6.74256 26.9456V23.1056C6.74256 22.6626 7.12 22.2851 7.56308 22.2851ZM42.599 23.9426H34.2626V26.962C34.2626 28.6195 35.6246 29.9815 37.2821 29.9815H39.5631C41.2205 29.9815 42.5826 28.6195 42.5826 26.962V23.9426H42.599ZM33.4585 22.2851H43.4195C43.879 22.2851 44.24 22.6462 44.24 23.1056V26.9456C44.24 29.5056 42.1395 31.6062 39.5795 31.6062H37.2985C34.7385 31.6062 32.6379 29.5056 32.6379 26.9456V23.1056C32.6379 22.6626 32.999 22.2851 33.4585 22.2851ZM29.4051 32.8697H21.5938C20.7077 32.8697 19.9692 33.6082 19.9692 34.4944V36.119H31.0297V34.4944C31.0297 33.5918 30.2913 32.8697 29.4051 32.8697ZM24.3836 31.2287H26.6154V13.6369C26.6154 12.8492 27.321 13.1282 28.0431 11.7826C28.2236 11.4051 28.3221 10.9949 28.3221 10.5354C28.3221 8.02462 25.2697 6.76103 23.4974 8.53333C22.9887 9.04205 22.6769 9.74769 22.6769 10.5354C22.6769 11.4544 23.1692 12.439 23.9569 12.9149C24.2195 13.0626 24.3836 13.3251 24.3836 13.6369V31.2287ZM32.1128 37.7436H18.8697C17.9836 37.7436 17.2451 38.4821 17.2451 39.3682V40.9928H33.721V39.3682C33.7374 38.4821 32.999 37.7436 32.1128 37.7436ZM32.6708 36.1518C34.2133 36.4144 35.3785 37.7764 35.3785 39.3682V41.8133C35.3785 42.2564 35.0174 42.6338 34.558 42.6338H16.4246C15.9815 42.6338 15.6041 42.2728 15.6041 41.8133V39.3682C15.6041 37.7764 16.7692 36.4144 18.3282 36.1518V34.4944C18.3282 32.7056 19.7887 31.2287 21.5938 31.2287H22.7426V14.0636C22.3815 13.7682 22.0533 13.4236 21.7908 13.0462H13.8482L17.2451 19.561C17.4585 19.9549 17.2944 20.4472 16.9005 20.6605C16.5067 20.8738 16.0144 20.7097 15.801 20.3159L12.5518 14.08L9.30256 20.2831C9.08923 20.6769 8.59692 20.841 8.20308 20.6277C7.80923 20.4144 7.64513 19.9221 7.85846 19.5282L11.2554 13.0133H7.56308C7.10359 13.0133 6.74256 12.6523 6.74256 12.1928V8.92718C6.74256 8.4841 7.10359 8.10667 7.56308 8.10667H21.7415C23.4974 5.38256 27.4851 5.38256 29.2574 8.10667H43.4359C43.8954 8.10667 44.2564 8.46769 44.2564 8.92718V12.1928C44.2564 12.6523 43.8954 13.0133 43.4359 13.0133H39.7436L43.1405 19.5282C43.3538 19.9221 43.1897 20.4144 42.7959 20.6277C42.4021 20.841 41.8933 20.6769 41.6964 20.2831L38.4472 14.08L35.1979 20.2995C34.9846 20.6933 34.4923 20.8574 34.0985 20.6441C33.7046 20.4308 33.5405 19.9385 33.7538 19.5446L37.1508 13.0297H29.2082C28.9456 13.4236 28.6174 13.7682 28.2564 14.0472V31.2123H29.4051C31.1938 31.2123 32.6708 32.6728 32.6708 34.478V36.1518Z" fill="white"/>
</g>
<defs>
<clipPath id="clip0_211_5093">
<rect width="64" height="64" fill="white"/>
</clipPath>
</defs>
</svg>
