<svg width="64" height="64" viewBox="0 0 64 64" fill="none" xmlns="http://www.w3.org/2000/svg">
<g clip-path="url(#clip0_211_5102)">
<path d="M62.9785 64H1.04825L4.28086 58.2153H59.7459L62.9785 64ZM20.8742 37.5986V55.2373H30.5244V37.5986H20.8742ZM33.5024 37.5986V55.2373H43.1526V37.5986H33.5024ZM4.89582 20.0746V55.2373H17.8962V34.6206H46.1306V55.2373H59.131V20.0746H4.89582ZM44.0579 10.0239V17.0966H64.0268V10.0239H44.0579ZM0 10.0239V17.0966H19.9689V10.0239H0ZM41.0799 0V17.0684H22.9469V0H41.0799ZM37.3783 7.04593H33.5024V3.17007H30.5244V7.04593H26.6486V10.0239H30.5244V13.8998H33.5024V10.0239H37.3783V7.04593Z" fill="white"/>
</g>
<defs>
<clipPath id="clip0_211_5102">
<rect width="64" height="64" fill="white"/>
</clipPath>
</defs>
</svg>
