<svg width="22" height="21" viewBox="0 0 22 21" fill="none" xmlns="http://www.w3.org/2000/svg">
  <path
    d="M19.75 10.5566C19.75 11.7057 19.5237 12.8435 19.0839 13.9051C18.6442 14.9667 17.9997 15.9313 17.1872 16.7438C16.3747 17.5563 15.4101 18.2009 14.3485 18.6406C13.2869 19.0803 12.1491 19.3066 11 19.3066C9.85093 19.3066 8.71312 19.0803 7.65152 18.6406C6.58992 18.2009 5.62533 17.5563 4.81281 16.7438C4.0003 15.9313 3.35578 14.9667 2.91605 13.9051C2.47632 12.8435 2.25 11.7057 2.25 10.5566C2.25 9.40757 2.47633 8.26976 2.91606 7.20816C3.35578 6.14656 4.00031 5.18197 4.81282 4.36945C5.62533 3.55694 6.58993 2.91242 7.65152 2.47269C8.71312 2.03296 9.85094 1.80664 11 1.80664C12.1491 1.80664 13.2869 2.03297 14.3485 2.4727C15.4101 2.91243 16.3747 3.55695 17.1872 4.36946C17.9997 5.18197 18.6442 6.14657 19.084 7.20817C19.5237 8.26976 19.75 9.40758 19.75 10.5566"
    stroke="black" stroke-opacity="0.5" stroke-width="3" stroke-linecap="round" stroke-linejoin="round"/>
  <path
    d="M11 1.80664C12.1491 1.80664 13.2869 2.03297 14.3485 2.47269C15.4101 2.91242 16.3747 3.55694 17.1872 4.36946C17.9997 5.18197 18.6442 6.14656 19.084 7.20816C19.5237 8.26976 19.75 9.40758 19.75 10.5566"
    stroke="black" stroke-width="3" stroke-linecap="round" stroke-linejoin="round"/>
</svg>
